<?xml version="1.0" encoding="utf-8"?>
<!-- Generator: Adobe Illustrator 21.0.2, SVG Export Plug-In . SVG Version: 6.00 Build 0)  -->
<svg version="1.1" id="Слой_1" xmlns="http://www.w3.org/2000/svg" xmlns:xlink="http://www.w3.org/1999/xlink" x="0px" y="0px"
	 viewBox="0 0 36 61" enable-background="new 0 0 36 61" xml:space="preserve">
<path fill="#CF7136" d="M18.2,9.6c3.6,0,6.4,2.9,6.4,6.4c0,3.6-2.9,6.4-6.4,6.4c-3.6,0-6.4-2.9-6.4-6.4C11.8,12.5,14.7,9.6,18.2,9.6
	L18.2,9.6z M18.2,31.6c8.6,0,15.6-7,15.6-15.6c0-8.6-7-15.6-15.6-15.6c-8.6,0-15.6,7-15.6,15.6C2.6,24.7,9.6,31.6,18.2,31.6
	 M24.5,44.3c3.2-0.7,6.3-2,9-3.7c2.1-1.3,2.8-4.2,1.4-6.3c-1.3-2.1-4.2-2.8-6.3-1.4c0,0,0,0,0,0c-6.4,4-14.6,4-21,0
	c-2.1-1.3-4.9-0.7-6.3,1.4c0,0,0,0,0,0c-1.3,2.1-0.7,4.9,1.4,6.3c2.8,1.7,5.8,3,9,3.7L3.2,53c-1.8,1.8-1.8,4.7,0,6.4
	c1.8,1.8,4.7,1.8,6.4,0l8.5-8.6l8.6,8.6c1.8,1.8,4.7,1.8,6.4,0c0,0,0,0,0,0c1.8-1.8,1.8-4.7,0-6.4c0,0,0,0,0,0L24.5,44.3"/>
</svg>
