<?xml version="1.0" encoding="utf-8"?>
<!-- Generator: Adobe Illustrator 21.0.2, SVG Export Plug-In . SVG Version: 6.00 Build 0)  -->
<svg version="1.1" id="YouTube" xmlns="http://www.w3.org/2000/svg" xmlns:xlink="http://www.w3.org/1999/xlink" x="0px" y="0px"
	 viewBox="0 0 30 30" enable-background="new 0 0 30 30" xml:space="preserve">
<g id="_x5B____x3E___x5D_">
	<g>
		<path d="M29.7,8.5c0,0-0.3-2.1-1.2-3c-1.1-1.2-2.4-1.2-3-1.3C21.3,4,15,4,15,4S8.7,4,4.5,4.3c-0.6,0.1-1.9,0.1-3,1.3
			c-0.9,0.9-1.2,3-1.2,3S0,10.6,0,13v3c0,2.4,0.3,4.5,0.3,4.5s0.3,2.1,1.2,3c1.1,1.2,2.6,1.2,3.3,1.3C7.2,25,15,25,15,25
			s6.3,0.1,10.5-0.2c0.6-0.1,1.9-0.1,3-1.3c0.9-0.9,1.2-3,1.2-3S30,18.4,30,16v-3C30,10.6,29.7,8.5,29.7,8.5z M11,18.5v-8l8,4
			L11,18.5z"/>
	</g>
</g>
</svg>
