<?xml version="1.0" encoding="UTF-8"?><!DOCTYPE svg PUBLIC "-//W3C//DTD SVG 1.1//EN" "http://www.w3.org/Graphics/SVG/1.1/DTD/svg11.dtd"><svg xmlns="http://www.w3.org/2000/svg"><symbol id="icon-close" viewBox="0 0 14.9 14.9">
    <title>
        Delete 14.3
    </title>
    <path d="M9.5 7.4l4.9 4.9c.6.6.6 1.5 0 2.1s-1.5.6-2.1 0L7.4 9.5l-4.9 4.9c-.6.6-1.5.6-2.1 0s-.6-1.5 0-2.1l4.9-4.9L.4 2.5C-.2 1.9-.2 1 .4.4s1.5-.6 2.1 0l4.9 4.9L12.3.4c.6-.6 1.5-.6 2.1 0s.6 1.5 0 2.1L9.5 7.4z"/>
</symbol><symbol id="icon-facebook" viewBox="0 0 10 19">
    <title>
        facebook
    </title>
    <path d="M9.766.157v2.946H8.014c-.64 0-1.071.134-1.295.402-.223.268-.335.67-.335 1.205v2.11h3.27l-.435 3.303H6.384v8.471H2.97v-8.47H.123V6.82H2.97V4.387c0-1.384.387-2.457 1.161-3.22C4.904.404 5.934.023 7.222.023c1.093 0 1.941.045 2.544.134z" fill-rule="evenodd"/>
</symbol><symbol id="icon-odn" viewBox="0 0 36 61">
    <path d="M18.2 9.6c3.6 0 6.4 2.9 6.4 6.4 0 3.6-2.9 6.4-6.4 6.4-3.6 0-6.4-2.9-6.4-6.4 0-3.5 2.9-6.4 6.4-6.4zm0 22c8.6 0 15.6-7 15.6-15.6S26.8.4 18.2.4 2.6 7.4 2.6 16c0 8.7 7 15.6 15.6 15.6m6.3 12.7c3.2-.7 6.3-2 9-3.7 2.1-1.3 2.8-4.2 1.4-6.3-1.3-2.1-4.2-2.8-6.3-1.4-6.4 4-14.6 4-21 0-2.1-1.3-4.9-.7-6.3 1.4-1.3 2.1-.7 4.9 1.4 6.3 2.8 1.7 5.8 3 9 3.7L3.2 53c-1.8 1.8-1.8 4.7 0 6.4 1.8 1.8 4.7 1.8 6.4 0l8.5-8.6 8.6 8.6c1.8 1.8 4.7 1.8 6.4 0 1.8-1.8 1.8-4.7 0-6.4l-8.6-8.7"/>
</symbol><symbol id="icon-phone" viewBox="0 0 30 30">
    <path d="M23.7 14.9c0 .4.3.8.8.8s.8-.3.8-.8c0-5.5-4.5-10-10-10-.4 0-.8.3-.8.8s.3.8.8.8c4.6-.1 8.4 3.7 8.4 8.4zm-9.2-5.2c0 .4.3.8.8.8 2.4 0 4.3 1.9 4.3 4.3 0 .4.3.8.8.8s.8-.3.8-.8c0-3.2-2.6-5.8-5.8-5.8-.6 0-.9.3-.9.7zm.7-9.5c-.4 0-.8.3-.8.8s.3.8.8.8c7.2 0 13.1 5.9 13.1 13.1 0 .4.3.8.8.8s.8-.3.8-.8C29.8 6.8 23.3.2 15.2.2zm4.2 17.5c-.1-.1-.3-.2-.5-.2s-.4.1-.5.2l-1.6 1.6c-.6.6-1.6.6-2.2 0l-3.7-3.4c-.6-.6-.6-1.6 0-2.2l1.8-1.8c.3-.3.3-.8 0-1.1L5.3 3.5c-.1-.1-.3-.2-.5-.2s-.4.1-.5.2c-.1.1-2.4 2.4-2.9 3C0 7.9-.2 10.8.8 13.3c2.2 5.5 9.5 12.2 15.6 15.9.5.3 1.7.6 2.9.6 1.1 0 2.7-.2 4.1-1.4 1.3-1.1 2.8-2.7 2.9-2.8.3-.3.3-.8 0-1l-6.9-6.9zm3 9.5c-1 .9-2.2 1-3.1 1-1.1 0-2-.3-2.1-.4-6.9-4.1-13.2-10.4-15-15.1-.8-2.1-.5-4.4.2-5.2l2.4-2.4 6.2 6.2-1.3 1.3c-1.2 1.2-1.2 3.1 0 4.3l3.7 3.4c1.1 1.1 3.1 1.1 4.3 0l1.1-1.1 5.8 5.8c-.5.7-1.4 1.6-2.2 2.2z"/>
</symbol><symbol id="icon-tw" viewBox="0 0 32 32">
    <path d="M32 6.1c-1.2.5-2.4.9-3.8 1 1.4-.8 2.4-2.1 2.9-3.6-1.3.8-2.7 1.3-4.2 1.6C25.7 3.8 24 3 22.1 3c-3.6 0-6.6 2.9-6.6 6.6 0 .5.1 1 .2 1.5-5.4-.3-10.2-2.9-13.5-6.9-.6 1-.9 2.1-.9 3.3 0 2.3 1.2 4.3 2.9 5.5-1.1 0-2.1-.3-3-.8v.1c0 3.2 2.3 5.8 5.3 6.4-.6.1-1.1.2-1.7.2-.4 0-.8 0-1.2-.1.8 2.6 3.3 4.5 6.1 4.6-2.2 1.8-5.1 2.8-8.1 2.8-.5 0-1.1 0-1.6-.1C2.9 27.9 6.4 29 10.1 29c12.1 0 18.7-10 18.7-18.7v-.9c1.2-.8 2.3-2 3.2-3.3z"/>
</symbol><symbol id="icon-vk" viewBox="0 0 30 30">
    <path d="M16 24c1 0 1-1.4 1-2 0-1 1-2 2-2s2.7 1.7 4 3c1 1 1 1 2 1h3s2-.1 2-2c0-.6-.7-1.7-3-4-2-2-3-1 0-5 1.8-2.5 3.2-4.7 3-5.3-.2-.6-5.3-1.6-6-.7-2 3-2.4 3.7-3 5-1 2-1.1 3-2 3-.9 0-1-1.9-1-3 0-3.3.5-5.6-1-6h-3c-1.6 0-3 1-3 1s-1.2 1-1 1c.3 0 2-.4 2 1v2s0 4-1 4-3-4-5-7c-.8-1.2-1-1-2-1H1c-1 0-1.1.7-1 1 2 5 3.4 8.1 7.2 12.1 3.5 3.6 5.8 3.8 7.8 3.9h1z"/>
</symbol><symbol id="icon-you" viewBox="0 0 30 30">
    <path d="M29.7 8.5s-.3-2.1-1.2-3c-1.1-1.2-2.4-1.2-3-1.3C21.3 4 15 4 15 4s-6.3 0-10.5.3c-.6.1-1.9.1-3 1.3-.9.9-1.2 3-1.2 3S0 10.6 0 13v3c0 2.4.3 4.5.3 4.5s.3 2.1 1.2 3c1.1 1.2 2.6 1.2 3.3 1.3C7.2 25 15 25 15 25s6.3.1 10.5-.2c.6-.1 1.9-.1 3-1.3.9-.9 1.2-3 1.2-3s.3-2.1.3-4.5v-3c0-2.4-.3-4.5-.3-4.5zM11 18.5v-8l8 4-8 4z"/>
</symbol></svg>